:FULLY-SPECIFIED
:FORCE-ALL-JOINTS-BE-3DOF
:DEGREES
81
root 9.27325 16.3498 -25.5806 4.27187 -7.54404 2.06836
lfemur -16.7942 2.83126 -26.557
ltibia 27.7682 -0 0
lfoot -14.6209 9.1737 -0.0146007
ltoes -1.08161 0 0
rfemur -21.3686 1.55299 18.5149
rtibia 58.3788 -0 0
rfoot -16.3666 -11.9352 0.0799154
rtoes -11.7285 0 0
lowerback -5.21255 -1.10137 -3.58986
upperback -1.49056 -1.33196 2.63587
thorax 1.53951 -0.674303 4.66658
lowerneck -22.2986 -4.01614 -11.7151
upperneck 19.5565 -4.62639 12.079
head 10.5298 -1.58347 5.61734
lclavicle -2.00524e-14 3.18055e-15 0
lhumerus -27.671 -12.7554 87.4129
lradius 26.6971 -0 0
lwrist 1.83353 0 0
lhand -9.25578 -22.7127 0.0378462
lfingers 7.12502 -0 0
lthumb 16.697 6.54895 0.0221985
rclavicle -2.00524e-14 3.18055e-15 0
rhumerus -43.9345 14.0661 -89.2336
rradius 40.8042 -0 0
rwrist -21.9773 0 0
rhand -30.6977 -23.7562 0.000729309
rfingers 7.12502 -0 0
rthumb -3.99122 -53.6985 0.000704322
82
root 9.29842 16.3672 -25.4508 4.18659 -7.50261 2.28609
lfemur -16.0883 2.76046 -26.9361
ltibia 27.5632 -0 0
lfoot -15.0182 9.22738 -0.0074864
ltoes -1.01131 0 0
rfemur -22.5167 1.35077 18.3438
rtibia 59.8757 -0 0
rfoot -16.7204 -12.2643 0.040973
rtoes -11.2946 0 0
lowerback -5.12047 -1.15631 -3.74968
upperback -1.49678 -1.39789 2.59994
thorax 1.4869 -0.706694 4.71255
lowerneck -22.3271 -3.99874 -11.6954
upperneck 19.651 -4.59655 12.0126
head 10.5614 -1.57537 5.59677
lclavicle -2.00524e-14 3.18055e-15 0
lhumerus -27.2368 -12.8852 87.2772
lradius 26.7877 -0 0
lwrist 1.88622 0 0
lhand -9.66486 -22.8477 0.0194048
lfingers 7.12502 -0 0
lthumb 16.3047 6.46629 0.0113821
rclavicle -2.00524e-14 3.18055e-15 0
rhumerus -43.8934 13.9164 -89.1189
rradius 40.4119 -0 0
rwrist -21.8534 0 0
rhand -30.6939 -23.4796 0.000373977
rfingers 7.12502 -0 0
rthumb -3.98749 -53.422 0.000361164
83
root 9.32359 16.3847 -25.3211 4.10147 -7.46086 2.50374
lfemur -15.3819 2.69433 -27.3161
ltibia 27.3581 0 0
lfoot -15.4155 9.28101 0
ltoes -0.941018 0 0
rfemur -23.6641 1.14515 18.1767
rtibia 61.3726 0 0
rfoot -17.074 -12.5931 0
rtoes -10.8607 0 0
lowerback -5.02824 -1.211 -3.90958
upperback -1.50296 -1.46382 2.56402
thorax 1.43427 -0.739042 4.75856
lowerneck -22.3555 -3.98132 -11.6757
upperneck 19.7455 -4.56661 11.9463
head 10.5931 -1.56725 5.5762
lclavicle -2.00524e-14 3.18055e-15 0
lhumerus -26.802 -13.014 87.1404
lradius 26.8783 0 0
lwrist 1.9389 0 0
lhand -10.0739 -22.9826 0
lfingers 7.12502 0 0
lthumb 15.9125 6.3837 0
rclavicle -2.00524e-14 3.18055e-15 0
rhumerus -43.8526 13.7666 -89.0045
rradius 40.0196 0 0
rwrist -21.7294 0 0
rhand -30.69 -23.203 0
rfingers 7.12502 0 0
rthumb -3.98376 -53.1455 0
84
root 9.32109 16.3757 -25.1921 4.12547 -7.12349 2.57121
lfemur -14.5739 2.65352 -27.3128
ltibia 26.6908 -0 0
lfoot -15.4156 9.05412 1.13978e-05
ltoes -1.07416 0 0
rfemur -24.0904 1.44068 17.8968
rtibia 60.5114 -0 0
rfoot -17.2483 -12.6084 0.000933651
rtoes -11.1226 0 0
lowerback -5.11148 -1.2718 -3.97319
upperback -1.49537 -1.53848 2.55297
thorax 1.50045 -0.778404 4.77183
lowerneck -22.2873 -4.0162 -11.7137
upperneck 19.7808 -4.60796 11.9258
head 10.5995 -1.59375 5.56949
lclavicle -4.69753e-14 -1.90833e-14 0
lhumerus -26.8376 -13.3395 87.3534
lradius 27.2159 -0 0
lwrist 2.15058 0 0
lhand -10.0989 -23.0153 0.000285424
lfingers 7.12502 -0 0
lthumb 15.8884 6.3529 0.000259297
rclavicle -4.69753e-14 -1.90833e-14 0
rhumerus -43.9234 13.5957 -88.8589
rradius 39.8644 -0 0
rwrist -21.6435 0 0
rhand -30.6663 -23.2048 -1.51021e-05
rfingers 7.12502 -0 0
rthumb -3.96092 -53.1477 -1.75986e-05
85
root 9.3186 16.3666 -25.063 4.14986 -6.78615 2.63877
lfemur -13.766 2.61266 -27.3101
ltibia 26.0236 -0 0
lfoot -15.4158 8.82722 2.22269e-05
ltoes -1.2073 0 0
rfemur -24.5182 1.73412 17.6146
rtibia 59.6502 -0 0
rfoot -17.4226 -12.6238 0.00182067
rtoes -11.3846 0 0
lowerback -5.19465 -1.33268 -4.03672
upperback -1.48777 -1.61315 2.54191
thorax 1.56661 -0.817781 4.78505
lowerneck -22.219 -4.05104 -11.7518
upperneck 19.8161 -4.6493 11.9054
head 10.6058 -1.62025 5.56277
lclavicle -4.69753e-14 -1.90833e-14 0
lhumerus -26.8745 -13.6649 87.567
lradius 27.5535 -0 0
lwrist 2.36226 0 0
lhand -10.124 -23.0479 0.000556577
lfingers 7.12502 -0 0
lthumb 15.8643 6.3221 0.000505629
rclavicle -4.69753e-14 -1.90833e-14 0
rhumerus -43.9945 13.425 -88.7133
rradius 39.7092 -0 0
rwrist -21.5576 0 0
rhand -30.6427 -23.2067 -2.94492e-05
rfingers 7.12502 -0 0
rthumb -3.93808 -53.1499 -3.43173e-05
